<mxfile host="Electron" modified="2023-07-02T18:06:38.016Z" agent="Mozilla/5.0 (Windows NT 10.0; Win64; x64) AppleWebKit/537.36 (KHTML, like Gecko) draw.io/21.5.1 Chrome/112.0.5615.204 Electron/24.6.0 Safari/537.36" etag="cdFRCvU6gbuNsFlc4QCW" version="21.5.1" type="device">
  <diagram name="Page-1" id="jOTbS239regMLlkqWPYL">
    <mxGraphModel dx="1436" dy="1856" grid="0" gridSize="10" guides="1" tooltips="1" connect="1" arrows="1" fold="1" page="0" pageScale="1" pageWidth="850" pageHeight="1100" math="0" shadow="0">
      <root>
        <mxCell id="0" />
        <mxCell id="1" parent="0" />
        <mxCell id="r6yLNoG1JKIrol4z2VNO-1" value="" style="rounded=0;whiteSpace=wrap;html=1;fontSize=16;horizontal=0;" parent="1" vertex="1">
          <mxGeometry x="-243" y="-1023" width="785" height="570" as="geometry" />
        </mxCell>
        <mxCell id="r6yLNoG1JKIrol4z2VNO-2" value="" style="rounded=1;whiteSpace=wrap;html=1;fontSize=16;fillColor=#dae8fc;strokeColor=#6c8ebf;" parent="1" vertex="1">
          <mxGeometry x="-105.5" y="-661" width="610" height="100" as="geometry" />
        </mxCell>
        <mxCell id="r6yLNoG1JKIrol4z2VNO-3" value="" style="rounded=1;whiteSpace=wrap;html=1;fontSize=16;fillColor=#ffe6cc;strokeColor=#d79b00;" parent="1" vertex="1">
          <mxGeometry x="-105.5" y="-814" width="610" height="139" as="geometry" />
        </mxCell>
        <mxCell id="r6yLNoG1JKIrol4z2VNO-4" value="Application Layer" style="rounded=1;whiteSpace=wrap;html=1;fontSize=16;fillColor=#d5e8d4;strokeColor=#82b366;" parent="1" vertex="1">
          <mxGeometry x="-105.5" y="-926" width="610" height="98" as="geometry" />
        </mxCell>
        <mxCell id="r6yLNoG1JKIrol4z2VNO-5" value="" style="rounded=1;whiteSpace=wrap;html=1;fontSize=16;fillColor=#f5f5f5;fontColor=#333333;strokeColor=#666666;" parent="1" vertex="1">
          <mxGeometry x="-213" y="-926" width="95" height="436" as="geometry" />
        </mxCell>
        <mxCell id="r6yLNoG1JKIrol4z2VNO-6" value="&lt;font style=&quot;font-size: 18px;&quot;&gt;System Modules&lt;/font&gt;" style="text;html=1;strokeColor=none;fillColor=none;align=center;verticalAlign=middle;whiteSpace=wrap;rounded=0;fontSize=16;" parent="1" vertex="1">
          <mxGeometry x="5" y="-997" width="250" height="30" as="geometry" />
        </mxCell>
        <mxCell id="r6yLNoG1JKIrol4z2VNO-7" value="Microcontroller" style="rounded=0;whiteSpace=wrap;html=1;fontSize=16;fillColor=#fad9d5;strokeColor=#ae4132;" parent="1" vertex="1">
          <mxGeometry x="-105.5" y="-549" width="610" height="60" as="geometry" />
        </mxCell>
        <mxCell id="r6yLNoG1JKIrol4z2VNO-16" style="edgeStyle=none;curved=1;rounded=0;orthogonalLoop=1;jettySize=auto;html=1;exitX=0.5;exitY=1;exitDx=0;exitDy=0;fontSize=12;startSize=8;endSize=8;" parent="1" edge="1">
          <mxGeometry relative="1" as="geometry">
            <mxPoint x="396" y="-591" as="sourcePoint" />
            <mxPoint x="396" y="-591" as="targetPoint" />
          </mxGeometry>
        </mxCell>
        <mxCell id="VjE--omdAlmAHaHHL6hZ-31" value="STD_TYPES" style="rounded=1;whiteSpace=wrap;html=1;fontSize=16;fillColor=#bac8d3;strokeColor=#23445d;rotation=-90;" parent="1" vertex="1">
          <mxGeometry x="-226.26" y="-868" width="120" height="40" as="geometry" />
        </mxCell>
        <mxCell id="r6yLNoG1JKIrol4z2VNO-12" value="MCAL" style="rounded=1;whiteSpace=wrap;html=1;fontSize=16;fillColor=#1ba1e2;fontColor=#ffffff;strokeColor=#006EAF;" parent="1" vertex="1">
          <mxGeometry x="474" y="-636" width="120" height="50" as="geometry" />
        </mxCell>
        <mxCell id="r6yLNoG1JKIrol4z2VNO-13" value="GPIO" style="rounded=1;whiteSpace=wrap;html=1;fontSize=16;fillColor=#1ba1e2;fontColor=#ffffff;strokeColor=#006EAF;" parent="1" vertex="1">
          <mxGeometry x="198" y="-633.5" width="240" height="45" as="geometry" />
        </mxCell>
        <mxCell id="VjE--omdAlmAHaHHL6hZ-12" style="edgeStyle=none;curved=1;rounded=0;orthogonalLoop=1;jettySize=auto;html=1;exitX=1;exitY=0.5;exitDx=0;exitDy=0;fontSize=12;startSize=8;endSize=8;" parent="1" edge="1">
          <mxGeometry relative="1" as="geometry">
            <mxPoint x="146" y="-741" as="sourcePoint" />
            <mxPoint x="146" y="-741" as="targetPoint" />
          </mxGeometry>
        </mxCell>
        <mxCell id="VjE--omdAlmAHaHHL6hZ-32" value="REGISTERS" style="rounded=1;whiteSpace=wrap;html=1;fontSize=16;fillColor=#bac8d3;strokeColor=#23445d;rotation=-90;" parent="1" vertex="1">
          <mxGeometry x="-226.26" y="-725" width="120" height="40" as="geometry" />
        </mxCell>
        <mxCell id="VjE--omdAlmAHaHHL6hZ-33" value="COMMON MACROS" style="rounded=1;whiteSpace=wrap;html=1;fontSize=16;fillColor=#bac8d3;strokeColor=#23445d;rotation=-90;" parent="1" vertex="1">
          <mxGeometry x="-227.03" y="-588.5" width="121.53" height="40" as="geometry" />
        </mxCell>
        <mxCell id="ShxdxOneBKLhwSZfwh8K-31" style="edgeStyle=orthogonalEdgeStyle;rounded=1;orthogonalLoop=1;jettySize=auto;html=1;entryX=0.5;entryY=0;entryDx=0;entryDy=0;fontSize=12;startSize=8;endSize=8;exitX=0.5;exitY=1;exitDx=0;exitDy=0;" parent="1" target="r6yLNoG1JKIrol4z2VNO-13" edge="1">
          <mxGeometry relative="1" as="geometry" />
        </mxCell>
        <mxCell id="r6yLNoG1JKIrol4z2VNO-9" value="HAL" style="rounded=1;whiteSpace=wrap;html=1;fontSize=16;fillColor=#ff9e42;fontColor=#000000;strokeColor=#C73500;" parent="1" vertex="1">
          <mxGeometry x="474" y="-769.5" width="120" height="50" as="geometry" />
        </mxCell>
        <mxCell id="nT8P0RG_OQsP6OdjPJSe-7" value="DCM" style="rounded=1;whiteSpace=wrap;html=1;fontSize=16;fillColor=#ff9e42;fontColor=#000000;strokeColor=#C73500;" parent="1" vertex="1">
          <mxGeometry x="46" y="-796" width="115" height="45" as="geometry" />
        </mxCell>
        <mxCell id="0MjCxgJAiSvBi42BGQoj-1" value="GPT" style="rounded=1;whiteSpace=wrap;html=1;fontSize=16;fillColor=#1ba1e2;fontColor=#ffffff;strokeColor=#006EAF;" parent="1" vertex="1">
          <mxGeometry x="-79" y="-633.5" width="240" height="45" as="geometry" />
        </mxCell>
        <mxCell id="U0mcnfD8sWnFzUJJSwLE-1" value="DELAY" style="rounded=1;whiteSpace=wrap;html=1;fontSize=16;fillColor=#ff9e42;fontColor=#000000;strokeColor=#C73500;" parent="1" vertex="1">
          <mxGeometry x="-79" y="-735" width="115" height="45" as="geometry" />
        </mxCell>
        <mxCell id="U0mcnfD8sWnFzUJJSwLE-9" style="edgeStyle=orthogonalEdgeStyle;rounded=1;orthogonalLoop=1;jettySize=auto;html=1;entryX=0.5;entryY=0;entryDx=0;entryDy=0;fontSize=12;startSize=8;endSize=8;exitX=0.5;exitY=1;exitDx=0;exitDy=0;" parent="1" source="U0mcnfD8sWnFzUJJSwLE-2" target="0MjCxgJAiSvBi42BGQoj-1" edge="1">
          <mxGeometry relative="1" as="geometry">
            <Array as="points">
              <mxPoint x="104" y="-666" />
              <mxPoint x="41" y="-666" />
            </Array>
          </mxGeometry>
        </mxCell>
        <mxCell id="U0mcnfD8sWnFzUJJSwLE-11" style="edgeStyle=orthogonalEdgeStyle;orthogonalLoop=1;jettySize=auto;html=1;entryX=0.5;entryY=0;entryDx=0;entryDy=0;fontSize=12;startSize=8;endSize=8;exitX=0.5;exitY=1;exitDx=0;exitDy=0;rounded=1;" parent="1" source="U0mcnfD8sWnFzUJJSwLE-2" target="r6yLNoG1JKIrol4z2VNO-13" edge="1">
          <mxGeometry relative="1" as="geometry">
            <Array as="points">
              <mxPoint x="104" y="-666" />
              <mxPoint x="318" y="-666" />
            </Array>
          </mxGeometry>
        </mxCell>
        <mxCell id="U0mcnfD8sWnFzUJJSwLE-2" value="PWM" style="rounded=1;whiteSpace=wrap;html=1;fontSize=16;fillColor=#ff9e42;fontColor=#000000;strokeColor=#C73500;" parent="1" vertex="1">
          <mxGeometry x="46" y="-735" width="115" height="45" as="geometry" />
        </mxCell>
        <mxCell id="U0mcnfD8sWnFzUJJSwLE-5" value="EXTI" style="rounded=1;whiteSpace=wrap;html=1;fontSize=16;fillColor=#ff9e42;fontColor=#000000;strokeColor=#C73500;" parent="1" vertex="1">
          <mxGeometry x="198" y="-735" width="115" height="45" as="geometry" />
        </mxCell>
        <mxCell id="U0mcnfD8sWnFzUJJSwLE-7" value="BUTTON" style="rounded=1;whiteSpace=wrap;html=1;fontSize=16;fillColor=#ff9e42;fontColor=#000000;strokeColor=#C73500;" parent="1" vertex="1">
          <mxGeometry x="198" y="-796" width="115" height="45" as="geometry" />
        </mxCell>
        <mxCell id="U0mcnfD8sWnFzUJJSwLE-8" value="LED" style="rounded=1;whiteSpace=wrap;html=1;fontSize=16;fillColor=#ff9e42;fontColor=#000000;strokeColor=#C73500;" parent="1" vertex="1">
          <mxGeometry x="323" y="-735" width="115" height="45" as="geometry" />
        </mxCell>
      </root>
    </mxGraphModel>
  </diagram>
</mxfile>
